<?xml version="1.0" encoding="UTF-8" standalone="no"?><!DOCTYPE svg PUBLIC "-//W3C//DTD SVG 1.1//EN" "http://www.w3.org/Graphics/SVG/1.1/DTD/svg11.dtd"><svg width="100%" height="100%" viewBox="0 0 2134 2134" version="1.1" xmlns="http://www.w3.org/2000/svg" xmlns:xlink="http://www.w3.org/1999/xlink" xml:space="preserve" xmlns:serif="http://www.serif.com/" style="fill-rule:evenodd;clip-rule:evenodd;stroke-linejoin:round;stroke-miterlimit:2;"><clipPath id="_clip1"><rect id="icon" x="0" y="0" width="2133.33" height="2133.33"/></clipPath><g clip-path="url(#_clip1)"><path d="M1343.12,1925.97l-0,37.761c-0,47.47 0.454,85.952 -47.017,85.952l-111.065,23.362c-41.5,41.691 -75.443,60.286 -118.139,60.286c-42.697,0 -77.114,-18.595 -118.613,-60.286l-111.066,-23.362c-47.47,0 -47.016,-38.482 -47.016,-85.952l-0,-0.236l552.916,-37.525Zm-552.916,-28.522l-0,-60.752c-0,-13.299 -0.791,-27.521 -2.305,-42.353l557.525,0c-1.514,14.832 -2.304,29.054 -2.304,42.353l-0,37.533l-552.916,23.219Zm145.005,-186.757l-161.994,0c-20.325,-83.716 -57.142,-168.758 -100.836,-210.262c-95.051,-90.288 -164.452,-285.558 -164.452,-403.268c0,-282.581 143.246,-576.256 558.241,-576.256c414.995,0 559.228,293.675 559.228,576.256c0,117.71 -69.401,312.98 -164.452,403.268c-15.382,14.61 -29.911,34.617 -43.169,58.061c-24.402,43.154 -44.497,97.956 -57.667,152.201l-152.53,0c-2.28,-33.409 -15.79,-233.525 -23.009,-388.344c81.528,-29.332 132.746,-99.355 154.345,-164.316c23.362,-70.26 -22.085,-146.847 -89.509,-148.207c-28.821,-0.581 -50.084,5.278 -65.959,14.898c-35.412,21.458 -44.677,73.22 -45.807,117.534c-0.732,28.726 5.46,97.49 8.039,156.754c-17.333,4.844 -55.566,8.858 -73.735,8.858c-19.946,0 -55.805,-3.54 -74.834,-8.858c2.579,-59.264 -0.692,-96.087 -1.425,-124.814c-1.13,-44.314 -10.395,-86.949 -45.807,-108.407c-15.875,-9.62 -37.137,-15.479 -65.959,-14.898c-67.424,1.36 -112.871,68.82 -89.509,139.081c21.599,64.961 82.281,103.043 163.808,132.375c-7.218,154.819 -20.728,354.935 -23.008,388.344Zm234.447,0l-196.525,0c2.581,-38.017 15.183,-226.004 22.39,-376.964c19.159,4.872 50.502,7.999 76.406,7.999c25.905,0 58.724,-3.774 75.338,-7.999c7.207,150.96 19.81,338.947 22.391,376.964Zm-209.843,-424.362c-63.12,-25.673 -111.684,-53.512 -129.105,-105.905c-15.636,-47.025 8.942,-94.963 54.068,-95.873c19.041,-0.385 33.301,2.707 43.788,9.062c11.738,7.113 18.282,18.127 22.418,30.782c4.991,15.27 6.407,32.841 6.859,50.565c0.675,26.499 4.203,57.941 1.972,111.369Zm223.16,0c-2.23,-53.428 -8.166,-116.811 -7.49,-143.31c0.452,-17.724 1.867,-35.295 6.858,-50.565c4.136,-12.655 6.724,-30.025 22.418,-39.908c10.371,-6.53 24.748,-9.446 43.788,-9.062c45.126,0.91 69.704,57.974 54.068,104.999c-17.421,52.393 -56.521,112.173 -119.642,137.846Zm-63.824,-1266.47l-11.961,295.65c-0,10.967 -8.891,19.857 -19.858,19.857l-40.008,-2.658c-10.967,0 -19.857,-8.89 -19.857,-19.857l-13.291,-292.992c0,-10.966 8.891,-19.857 19.858,-19.857l65.26,0c10.966,0 19.857,8.891 19.857,19.857Zm862.626,548.4l-259.041,132.512c-9.596,5.308 -21.679,1.832 -26.987,-7.765l-15.64,-23.297c-5.308,-9.597 -1.831,-21.679 7.765,-26.988l243.093,-166.32c9.597,-5.309 21.68,-1.832 26.988,7.764l31.587,57.106c5.309,9.597 1.832,21.68 -7.765,26.988Zm-1830.23,0c-9.597,-5.308 -13.073,-17.391 -7.765,-26.988l31.587,-57.106c5.309,-9.596 17.392,-13.073 26.988,-7.764l248.941,153.51c9.596,5.308 13.073,17.391 7.765,26.988l-15.64,33.715c-5.308,9.597 -17.391,13.073 -26.987,7.765l-264.889,-130.12Z" style="fill:#fff;"/></g></svg>