<?xml version="1.0" encoding="UTF-8" standalone="no"?><!DOCTYPE svg PUBLIC "-//W3C//DTD SVG 1.1//EN" "http://www.w3.org/Graphics/SVG/1.1/DTD/svg11.dtd"><svg width="100%" height="100%" viewBox="0 0 350 350" version="1.1" xmlns="http://www.w3.org/2000/svg" xmlns:xlink="http://www.w3.org/1999/xlink" xml:space="preserve" xmlns:serif="http://www.serif.com/" style="fill-rule:evenodd;clip-rule:evenodd;stroke-linejoin:round;stroke-miterlimit:2;"><g id="info"><g><path d="M160.269,291.512c-79.487,-7.266 -135.547,-61.995 -135.547,-127.794c0,-70.742 71.479,-128.176 159.52,-128.176c88.042,-0 159.521,57.434 159.521,128.176c-0,61.022 -49.185,111.696 -120.309,124.593c0.227,13.885 0.275,51.531 -1.135,57.083c-1.427,5.619 -42.438,-18.744 -51.718,-33.625c-3.587,-5.751 -9.029,-13.736 -10.332,-20.257Z" style="fill-opacity:0.24;"/><path d="M151.027,275.631c-79.487,-7.266 -135.547,-61.995 -135.547,-127.794c-0,-70.742 71.478,-128.176 159.52,-128.176c88.042,-0 159.52,57.434 159.52,128.176c0,61.022 -49.185,111.697 -120.308,124.593c0.227,13.885 0.275,51.531 -1.135,57.083c-1.427,5.62 -42.439,-18.743 -51.719,-33.625c-3.586,-5.751 -9.028,-13.736 -10.331,-20.257Z"/><path d="M156.909,269.396c-75.236,-6.877 -133.768,-58.26 -133.768,-120.54c0,-66.96 67.657,-121.323 150.991,-121.323c83.334,0 153.619,50.457 153.812,117.417c0.19,65.902 -53.162,110.05 -120.483,122.257c0.215,13.143 0.633,46.201 -0.443,53.611c-0.789,5.43 -34.617,-18.204 -43.401,-32.29c-3.394,-5.444 -5.475,-12.959 -6.708,-19.132Z" style="fill:#fff;"/><path d="M122.983,99.918c0,-9.99 4.534,-18.365 13.601,-25.127c9.068,-6.762 22.015,-10.143 38.843,-10.143c16.829,-0 29.815,3.227 38.959,9.682c9.144,6.454 13.716,15.983 13.716,28.584c0,8.299 -2.036,15.638 -6.109,22.015c-4.072,6.378 -10.271,14.045 -16.943,19.48c-7.742,6.305 -24.554,13.435 -28.894,21.566c-1.876,3.516 -2.484,27.294 -8.931,24.21c-6.795,-3.25 -7.944,-28.693 -6.974,-37.017c0.756,-6.482 3.253,-13.716 6.762,-19.363c3.509,-5.648 14.293,-14.523 14.293,-14.523c4.457,-4.457 7.53,-8.645 9.221,-12.564c1.69,-3.919 2.536,-9.029 2.536,-15.33c-0,-14.907 -6.916,-22.36 -20.748,-22.36c-6.608,-0 -11.449,1.767 -14.523,5.302c-3.073,3.534 -4.61,6.915 -4.61,10.143c-0,3.227 0.461,6.07 1.383,8.529c0,-0 4.362,-2.069 8.406,-0.386c3.358,1.398 5.163,5.994 5.033,10.157c-0.142,4.532 -2.324,9.89 -7.564,13.172c-4.295,2.689 -11.331,5.411 -17.632,5.411c-6.301,0 -11.18,-2.036 -14.638,-6.109c-3.458,-4.072 -5.187,-9.182 -5.187,-15.329Zm43.915,130.937c-5.763,0 -10.066,-1.652 -12.909,-4.956c-2.843,-3.304 -4.265,-7.454 -4.265,-12.449c0,-4.994 1.537,-9.144 4.611,-12.448c3.073,-3.304 7.3,-4.956 12.678,-4.956c5.379,-0 9.682,1.422 12.91,4.265c3.227,2.843 4.841,7.031 4.841,12.563c-0,5.533 -1.537,9.913 -4.611,13.14c-3.073,3.227 -7.492,4.841 -13.255,4.841Z" style="fill:#00f;fill-rule:nonzero;"/></g></g></svg>